<svg version="1.1" id="Layer_1" xmlns="http://www.w3.org/2000/svg" xmlns:xlink="http://www.w3.org/1999/xlink" x="0px" y="0px"
	 viewBox="-287 377 36 36" style="enable-background:new -287 377 36 36;" xml:space="preserve">
<g id="Icons">
	<g id="Color-" transform="translate(-206.000000, -953.000000)">
		<path id="_x35_00px" class="st0" d="M-51.9,1357.8L-51.9,1357.8c-0.2-0.2-0.4-0.3-0.6-0.4c-0.2,0-0.3,0-0.4,0.1l-0.1,0.1
			c-1.1,1.1-2.5,2-3.9,2.6c-1.5,0.6-3.1,1-4.8,1c-1.7,0-3.3-0.3-4.8-1c-1.5-0.6-2.8-1.5-3.9-2.6c-1.2-1.2-2.1-2.5-2.6-3.9
			c-0.6-1.4-0.7-2.4-0.8-2.8c0,0,0-0.1,0-0.1c-0.1-0.4-0.4-0.4-1-0.3c-0.2,0-0.9,0.1-0.8,0.6l0,0c0.2,1.1,0.5,2.2,0.9,3.3
			c0.7,1.7,1.7,3.2,3,4.5c1.3,1.3,2.8,2.3,4.5,3c1.7,0.7,3.6,1.1,5.5,1.1c1.9,0,3.8-0.4,5.5-1.1c1.7-0.7,3.2-1.7,4.5-3
			c0,0,0.1-0.1,0.1-0.1C-51.4,1358.6-51.3,1358.4-51.9,1357.8L-51.9,1357.8z M-61.7,1335.4c-1.8,0-3.8,0.4-5.2,1
			c-0.2,0.1-0.2,0.2-0.3,0.4c0,0.2,0,0.4,0.1,0.7c0.1,0.2,0.3,0.8,0.8,0.7c1.5-0.6,3.1-0.9,4.6-0.9c1.7,0,3.3,0.3,4.8,1
			c1.2,0.5,2.4,1.2,3.6,2.3c0.1,0.1,0.2,0.1,0.3,0.1c0.2,0,0.5-0.2,0.7-0.5c0.3-0.4,0.6-0.7,0.2-1c-1.2-1.1-2.5-2-4.1-2.6
			C-58,1335.7-59.8,1335.4-61.7,1335.4L-61.7,1335.4z M-64.2,1350.7c0,0.2,0.2,0.4,0.3,0.5l0,0c0.2,0.2,0.4,0.3,0.5,0.3
			c0.1,0,0.2-0.1,0.3-0.1c0.1-0.1,1.1-1.1,1.1-1.1l1.1,1.1c0.1,0.1,0.2,0.2,0.3,0.2c0.2,0,0.4-0.1,0.6-0.3c0.5-0.5,0.2-0.7,0.1-0.8
			l-1.1-1.1l1.1-1.1c0.2-0.3,0-0.6-0.2-0.8c-0.3-0.3-0.6-0.4-0.8-0.2l-1.1,1.1l-1.1-1.1c-0.1-0.1-0.1-0.1-0.2-0.1
			c-0.2,0-0.3,0.1-0.5,0.3c-0.4,0.3-0.4,0.6-0.2,0.8l1.1,1.1l-1.1,1.1C-64.2,1350.5-64.2,1350.6-64.2,1350.7L-64.2,1350.7z
			 M-71.5,1352.4c0,0,0.2,0.5,0.3,0.7c0.5,1.2,1.2,2.3,2.2,3.2c0.9,0.9,2,1.7,3.2,2.2c1.3,0.5,2.6,0.8,4,0.8c1.4,0,2.7-0.3,4-0.8
			c1.2-0.5,2.3-1.2,3.2-2.2c0.9-0.9,1.7-2,2.2-3.2c0.5-1.3,0.8-2.6,0.8-4c0-1.4-0.3-2.7-0.8-4c-0.5-1.2-1.2-2.3-2.2-3.2
			c-0.9-0.9-2-1.7-3.2-2.2c-1.3-0.5-2.6-0.8-4-0.8c-1.4,0-2.8,0.3-4,0.8c-1,0.4-2.7,1.5-3.7,2.5l0,0v-8.4l14.1,0
			c0.5,0,0.5-0.7,0.5-1c0-0.2,0-0.9-0.5-1l-15.3,0c-0.4,0-0.7,0.3-0.7,0.7v11.8c0,0.4,0.5,0.7,0.9,0.7c0.9,0.2,1.1-0.1,1.3-0.4l0,0
			c0.3-0.5,1.3-1.5,1.3-1.5c1.6-1.6,3.7-2.4,5.9-2.4c2.2,0,4.3,0.9,5.9,2.4c1.6,1.6,2.4,3.6,2.4,5.9c0,2.2-0.9,4.3-2.4,5.9
			c-1.5,1.5-3.7,2.4-5.9,2.4c-1.5,0-3-0.4-4.2-1.2l0-7.1c0-1,0.4-2,1.1-2.8c0.8-0.9,1.9-1.4,3.1-1.4c1.2,0,2.2,0.4,3,1.2
			c0.8,0.8,1.2,1.8,1.2,3c0,2.4-1.9,4.3-4.3,4.3c-0.5,0-1.3-0.2-1.3-0.2c-0.5-0.1-0.7,0.5-0.8,0.7c-0.3,0.9,0.1,1,0.2,1
			c0.8,0.2,1.3,0.3,2,0.3c3.4,0,6.2-2.8,6.2-6.1c0-3.4-2.8-6.1-6.2-6.1c-1.7,0-3.2,0.6-4.4,1.8c-1.1,1.1-1.8,2.6-1.8,4l0,0
			c0,0.2,0,4.5,0,5.9l0,0c-0.6-0.7-1.3-1.8-1.7-2.9c-0.2-0.4-0.5-0.4-1-0.2C-71,1351.7-71.6,1351.9-71.5,1352.4L-71.5,1352.4
			L-71.5,1352.4z"/>
	</g>
</g>
</svg>
