<?xml version="1.0" encoding="utf-8"?>
<!-- Generator: Adobe Illustrator 19.0.0, SVG Export Plug-In . SVG Version: 6.00 Build 0)  -->
<svg version="1.1" id="Layer_1" xmlns="http://www.w3.org/2000/svg" xmlns:xlink="http://www.w3.org/1999/xlink" x="0px" y="0px"
	 viewBox="0 0 400 400" style="enable-background:new 0 0 400 400;" xml:space="preserve">
<g>
	<path d="M333,267.7c2.1-1.2,4.2-2.6,6.4-3.6c5.7-2.6,11.5-4.9,17-7.6c2.6-1.2,5-3,7.2-4.8c8.4-7,9.7-15.2,3.2-24
		c-7.4-10.1-17-17.8-28-23.5c-6.2-3.2-12.6-2.8-18.8,0.6c-13,7-20.4,17.2-19.7,32.6c0.5,11.4,0.6,22.8,0.1,34.2
		c-0.8,16.9-7.3,31.6-19.6,43.4c-13.6,13-28.6,23.8-47.7,26.8c-6,0.9-10.4,2.3-14,7.6c-3.7,5.6-10.3,7.4-16.7,8.2
		c-18.2,2.3-36.1,0.2-53.4-6.1c-1.8-0.7-3.7-1.6-5-3c-0.8-0.8-1.3-3.2-0.7-3.8c6.2-6.7,7.6-15.3,8.7-23.6c3-20.7,5.2-41.6,7.7-62.4
		c0-0.3-0.2-0.5-0.5-1.3c-2.5,0.2-5.2,0.4-7.9,0.5c-31.3,2-60.9-3.6-87.7-20.6c-15.7-10-27.8-23.2-32.9-41.6
		c-5.5-19.7-0.1-37.5,11.5-53.3c7-9.5,16-17.4,23.9-26.1c1.8-2,3.7-4.5,4.3-7c4.7-18.4,9.1-36.8,13.7-55.3c0.3-1.1,0.7-2.2,1.3-4.1
		c6.9,11.7,13.2,22.8,19.8,33.7c5.8,9.7,2.4,8.3,13.8,7.1c25.1-2.5,50.2-6,75.5-3.8c11.9,1,23.6,3.8,36.1,5.9
		c7.1-12.9,14.8-26.8,23-41.7c3.3,16.8,6.6,32.3,9.3,48c1.6,9.8,4.8,17.8,12.3,25.2c15,14.6,23.7,32.8,22.8,54.3
		c-0.9,23.4-12.5,41.2-30.6,55c-18.9,14.4-40.8,21.2-64.1,23.8c-4.2,0.5-8.5,0.7-13.5,1.2c1,1.8,1.7,3.3,2.6,4.7
		c5.6,8.5,11.2,17,16.7,25.6c8.1,12.7,15.6,25.7,17.4,41c30.3-3.7,53.5-25.6,59.2-57.1c2.1-11.5,2.1-23.6,1.7-35.4
		c-0.6-17.8,7.6-30.9,20.3-41.8c8-6.8,17.8-8.7,27.9-6c18.2,4.7,32.8,15,43.1,30.8c5.9,9.1,8.3,19.2,4.8,30
		c-2.2,6.7-6.4,11.7-13,14.5c-9.6,4.2-19.7,6-30.2,6c-2.3,0-4.6-0.8-6.9-1.2C333.2,269,333.1,268.4,333,267.7z M172,237.7
		c-0.5,0-0.9,0-1.4,0c-5.4-28.2-10.8-56.4-16.2-84.6c-0.3,0-0.6,0.1-0.9,0.1c-3.1,28.1-6.3,56.2-9.4,84.2c16,4,45.1,1.5,55.5-4.7
		c-5.4-25.9-10.8-51.9-16.2-77.9c-0.3,0-0.6,0-0.8,0C179.1,182.4,175.5,210,172,237.7z M183.6,149c5.5,26.4,10.9,52.2,16.2,78
		c0.3,0,0.6-0.1,1-0.1c5-25.9,10-51.7,15-77.9C205,149,194.5,149,183.6,149z M97.3,147.8c6.7,24.9,13.4,49.9,20.1,75
		c0.4-0.1,0.7-0.2,1.1-0.2c2.8-24.7,5.6-49.4,8.4-74.8C117.1,147.8,107.4,147.8,97.3,147.8z M170.7,230.6c0.3,0,0.6-0.1,0.9-0.1
		c3.4-27.1,6.9-54.1,10.3-81.4c-9.1,0-17.8,0-26.8,0C160.3,176.6,165.5,203.6,170.7,230.6z M142.7,230c0.3,0,0.5,0,0.8,0
		c3-27,6.1-54,9.2-81.6c-8.3,0-16,0-24,0C133.4,175.7,138.1,202.8,142.7,230z M201,233.4c6.6-3.4,12-6.2,17.4-8.8
		c6.2-2.9,9-6.5,7.5-14.4c-3.6-18.7-5.8-37.7-8.6-56.5c-0.3,0-0.6-0.1-0.9-0.1C211.3,179.7,206.3,205.8,201,233.4z M142.7,238.1
		c-4.9-28.4-9.5-55.3-14.2-83.2c-0.7,1.3-1.1,1.6-1.1,1.9c-2.7,23.5-5.4,47.1-7.9,70.7c-0.1,1.1,1.2,3.1,2.3,3.5
		C128.3,233.4,134.9,235.5,142.7,238.1z M227.2,211.3c0.4,0,0.7-0.1,1.1-0.1c5.6-20.6,11.1-41.2,16.8-62.1c-9.1,0-17.9,0-27,0
		C221.1,170.1,224.1,190.7,227.2,211.3z M97.5,153.7c-0.5,1.1-0.8,1.5-0.8,1.9c-1.8,17.8-3.6,35.7-5.3,53.5
		c-0.1,1.1,0.3,2.5,1.1,3.2c7.2,6.8,15.3,12.3,25.3,16.8C110.9,203.7,104.3,179.2,97.5,153.7z M89.4,204c0.3,0,0.6,0,1,0
		c1.9-18.8,3.8-37.6,5.7-57.1c-8.2,0-15.8,0-23.9,0C78,166,83.7,185,89.4,204z M228.1,216.9c0.3,0.2,0.6,0.4,0.9,0.6
		c3.4-3.2,6.8-6.3,10.2-9.5c7.3-6.7,12.2-14.2,9.1-24.7c-0.1-0.3,0-0.6-0.1-0.9c-0.8-9.3-1.7-18.7-2.5-28c-0.3,0-0.5,0-0.8-0.1
		C239.4,175.2,233.7,196,228.1,216.9z M250.5,190.6c0.6,0,1.2,0,1.8,0c7.4-12.8,11.5-26.5,11.5-41.5c-6,0-11.4,0-17.1,0
		C248,163.1,249.2,176.9,250.5,190.6z M89,207.6c-5.7-19-11.4-38-17.2-57C64.3,173.6,71.2,192.2,89,207.6z M234.8,109
		c-0.4,0.4-0.7,0.8-1.1,1.2c10.4,11.8,7.5,23.1-7.5,29.8c5.8,2.2,18.9-5.1,26.9-15.5C247,119.4,240.9,114.2,234.8,109z M114.5,108
		c-0.4,0.4-0.8,0.8-1.2,1.2c10.4,12,6.4,26.1-8.4,29.3c5.5,3.1,20.3-4.9,27.3-15.3C126.4,118.2,120.5,113.1,114.5,108z M97.8,136.9
		c-9.5-9.7-9.6-18.2,0.3-29.2c-8.8,3.3-13.8,9.7-19.3,15.7C83.4,130.6,89.8,134.9,97.8,136.9z M218.8,138.5
		c-9.8-10.9-10-17.4-1-29.5c-8.3,3.7-13.4,9.7-18.6,15.6C203.8,131.5,209.9,135.9,218.8,138.5z M65.9,171.7c0.6-0.1,1.2-0.1,1.7-0.2
		c0.7-8.3,1.4-16.6,2.2-25.1c-2.6,0-4.3,0-7.2,0C63.7,155,64.8,163.4,65.9,171.7z"/>
</g>
</svg>
