<svg id="Damg_Logo_copy_4" data-name="Damg Logo copy 4" xmlns="http://www.w3.org/2000/svg" width="66" height="66" viewBox="0 0 66 66">
  <metadata><?xpacket begin="﻿" id="W5M0MpCehiHzreSzNTczkc9d"?>
<x:xmpmeta xmlns:x="adobe:ns:meta/" x:xmptk="Adobe XMP Core 5.6-c138 79.159824, 2016/09/14-01:09:01        ">
   <rdf:RDF xmlns:rdf="http://www.w3.org/1999/02/22-rdf-syntax-ns#">
      <rdf:Description rdf:about=""/>
   </rdf:RDF>
</x:xmpmeta>
                                                                                                    
                                                                                                    
                                                                                                    
                                                                                                    
                                                                                                    
                                                                                                    
                                                                                                    
                                                                                                    
                                                                                                    
                                                                                                    
                                                                                                    
                                                                                                    
                                                                                                    
                                                                                                    
                                                                                                    
                                                                                                    
                                                                                                    
                                                                                                    
                                                                                                    
                                                                                                    
                           
<?xpacket end="w"?></metadata>
<defs>
    <style>
      .cls-1, .cls-2 {
        fill: #fff;
      }

      .cls-1, .cls-2, .cls-3, .cls-4 {
        fill-rule: evenodd;
      }

      .cls-1 {
        opacity: 0.25;
      }

      .cls-3 {
        fill: #e50000;
      }

      .cls-4 {
        fill: #e90000;
      }
    </style>
  </defs>
  <g id="HexagonBG">
    <path id="Polygon_1" data-name="Polygon 1" class="cls-1" d="M935.479,75.522l-0.014-29.069L960.987,31.93l25.535,14.546,0.013,29.069L961.014,90.068Z" transform="translate(-928 -28)"/>
    <path id="Polygon_1_copy_2" data-name="Polygon 1 copy 2" class="cls-1" d="M932,77.5l0-33L961,28l29,16.5,0,33L961,94Z" transform="translate(-928 -28)"/>
    <path id="Polygon_1_copy" data-name="Polygon 1 copy" class="cls-2" d="M937.175,74.538L937.15,47.416l23.794-13.54,23.818,13.582,0.025,27.121L960.993,88.12Z" transform="translate(-928 -28)"/>
  </g>
  <path id="Polygon_3_copy_7" data-name="Polygon 3 copy 7" class="cls-3" d="M960.331,73.447l0.861,2.385,2.584,0.065-2.052,1.539,0.736,2.425-2.129-1.434L958.2,79.86l0.735-2.425L956.886,75.9l2.584-.065Z" transform="translate(-928 -28)"/>
  <path id="Team" class="cls-4" d="M953.848,45.081h-2.512v0.23h1.117V48.3h0.276V45.311h1.119v-0.23Zm2.33,1.446h-1.527V45.311H956.4v-0.23h-2.02V48.3h2.031v-0.23h-1.755V46.756h1.527v-0.23Zm2.911,1.773h0.287l-1.236-3.218h-0.262L956.642,48.3h0.289l0.337-.9h1.482Zm-1.081-2.887,0.655,1.753h-1.31Zm1.848-.332V48.3h0.275v-1.41l-0.022-1.417L961.32,48.3h0.213l1.216-2.838L962.726,46.9v1.4H963V45.081h-0.368l-1.209,2.84-1.2-2.84h-0.365Z" transform="translate(-928 -28)"/>
  <path id="Da" class="cls-4" d="M953.332,59.053h-2.091a3.543,3.543,0,0,0-1.738.363,2.08,2.08,0,0,0-.783.785,2.137,2.137,0,0,0-.288,1.079,1.985,1.985,0,0,0,.674,1.545,2.479,2.479,0,0,0,1.723.607,3.286,3.286,0,0,0,2.256-.88,3.579,3.579,0,0,0,.612-0.7,11.062,11.062,0,0,0,.648-1.26l0.071-.161h0.412a6.638,6.638,0,0,0,2.689-.495,5.464,5.464,0,0,0,2.011-1.576,6.523,6.523,0,0,0,1.573-4.228,2.908,2.908,0,0,0-.925-2.318A3.925,3.925,0,0,0,957.52,51h-1.885a0.961,0.961,0,0,0-.657.236,0.749,0.749,0,0,0-.268.587,0.538,0.538,0,0,0,.654.552h0.742Zm4.435-6.674a1.669,1.669,0,0,1,1.8,1.806,4.546,4.546,0,0,1-.345,1.64,6.466,6.466,0,0,1-.939,1.645,3.737,3.737,0,0,1-3.057,1.582h-0.236Zm-5.819,9.208a1.57,1.57,0,0,1-1.031.417,0.9,0.9,0,0,1-.618-0.224,0.71,0.71,0,0,1-.254-0.552q0-.8,1.155-0.8h1.561A3.145,3.145,0,0,1,951.948,61.587Zm17.746-4.548a2.569,2.569,0,0,0-.241.9,0.81,0.81,0,0,0,.321.664,1.286,1.286,0,0,0,.827.256h1.42a0.96,0.96,0,0,0,.659-0.239,0.748,0.748,0,0,0,.271-0.584,0.541,0.541,0,0,0-.659-0.552h-1.113l0.653-1.571h0.9a0.961,0.961,0,0,0,.66-0.239,0.742,0.742,0,0,0,.271-0.578,0.543,0.543,0,0,0-.66-0.558h-0.6l1.013-2.48,0.053-.132a0.863,0.863,0,0,0,.07-0.311,0.53,0.53,0,0,0-.212-0.449A0.942,0.942,0,0,0,972.745,51a6.231,6.231,0,0,0-2.356.374,5,5,0,0,0-2.373,2.324l-0.466.834h-0.436a14.4,14.4,0,0,0-2.538.178,5.692,5.692,0,0,0-1.738.616,4.832,4.832,0,0,0-1.655,1.5,3.343,3.343,0,0,0-.606,1.884,2.79,2.79,0,0,0,.786,2.016,2.6,2.6,0,0,0,1.947.814q1.89,0,3.268-2.342l1.95-3.3h1.632Zm-0.377-2.5,0.242-.391a4.963,4.963,0,0,1,.975-1.263,1.8,1.8,0,0,1,1.051-.388l-0.848,2.042h-1.42Zm-4.323,4.321a1.912,1.912,0,0,1-1.573,1.151,1.143,1.143,0,0,1-.871-0.388,1.326,1.326,0,0,1-.36-0.935,2.189,2.189,0,0,1,.374-1.185,3.131,3.131,0,0,1,1-.978,5.066,5.066,0,0,1,2.674-.61h0.5Z" transform="translate(-928 -28)"/>
  <path id="mG" class="cls-4" d="M962.732,63.092l0.136-.322a1.074,1.074,0,0,0,.094-0.414,0.648,0.648,0,0,0-.244-0.509,0.888,0.888,0,0,0-.6-0.21,1.655,1.655,0,0,0-1.09.558l-1.767,1.7L958.9,62.569a1.782,1.782,0,0,0-.333-0.725,0.675,0.675,0,0,0-.521-0.207,0.957,0.957,0,0,0-.825.742L954.887,68a8.043,8.043,0,0,1-1.157,2.1,1.61,1.61,0,0,1-1.24.6,1.2,1.2,0,0,1-.937-0.377,1.479,1.479,0,0,1-.341-1.033,2.2,2.2,0,0,1,.35-1.179,2.727,2.727,0,0,1,.945-0.915,4.539,4.539,0,0,1,1.891-.524,1.512,1.512,0,0,0,.683-0.173,0.671,0.671,0,0,0,.307-0.57,0.624,0.624,0,0,0-.289-0.535,1.326,1.326,0,0,0-.772-0.2,5.066,5.066,0,0,0-1.926.4,4.921,4.921,0,0,0-1.631,1.05,3.887,3.887,0,0,0-1.214,2.825,2.673,2.673,0,0,0,.772,1.988,2.735,2.735,0,0,0,2.009.762,3.311,3.311,0,0,0,2.055-.679,4,4,0,0,0,1.007-1.113A21.052,21.052,0,0,0,956.53,68l1.437-3.463,0.165,0.713a0.656,0.656,0,0,0,.619.639,1.121,1.121,0,0,0,.771-0.431l1.137-1.191-1.514,3.463a2.468,2.468,0,0,0-.247.874,0.842,0.842,0,0,0,.333.716,1.548,1.548,0,0,0,.945.25H961.3a1.3,1.3,0,0,0,.8-0.219,0.723,0.723,0,0,0,.286-0.61q0-.546-0.819-0.546h-0.954Zm7.681,4.021a1.75,1.75,0,0,0,.165-0.581,0.628,0.628,0,0,0-.212-0.489,0.774,0.774,0,0,0-.536-0.19,1.476,1.476,0,0,0-.7.23l-0.312.178a1.65,1.65,0,0,1-.807.23,0.724,0.724,0,0,1-.884-0.736V65.641h1.343a4.244,4.244,0,0,0,2.109-.414,1.954,1.954,0,0,0,1.054-1.772,1.726,1.726,0,0,0-.568-1.335,2.1,2.1,0,0,0-1.47-.518,3.48,3.48,0,0,0-2.07.708,5.4,5.4,0,0,0-1.623,1.956H964.9a0.962,0.962,0,0,0-.663.239,0.761,0.761,0,0,0-.268.59,0.539,0.539,0,0,0,.66.547H965.6a2.311,2.311,0,0,0,.554,1.614,1.867,1.867,0,0,0,1.454.613,2.674,2.674,0,0,0,.913-0.161l-0.2.489-0.936.011a5.852,5.852,0,0,0-2.769.547,2.833,2.833,0,0,0-1.649,2.589,2.369,2.369,0,0,0,.733,1.775,2.525,2.525,0,0,0,1.829.71,2.738,2.738,0,0,0,1.938-.722,7.03,7.03,0,0,0,1.49-2.477l0.436-1.058h1.178a1.311,1.311,0,0,0,.8-0.216,0.7,0.7,0,0,0,.289-0.6q0-.564-0.819-0.564h-0.872Zm-3.01,3.279a5.161,5.161,0,0,1-.863,1.507,1.3,1.3,0,0,1-.969.466,1,1,0,0,1-.745-0.311,1.047,1.047,0,0,1-.3-0.759,1.306,1.306,0,0,1,.353-0.883,2.24,2.24,0,0,1,.966-0.613,6.064,6.064,0,0,1,1.9-.23Zm1.116-7.088a1.748,1.748,0,0,1,.969-0.351,0.758,0.758,0,0,1,.486.152,0.469,0.469,0,0,1,.191.383q0,0.777-1.46.777h-1.143A3.956,3.956,0,0,1,968.519,63.305Z" transform="translate(-928 -28)"/>
</svg>
