<?xml version="1.0" ?><svg id="Layer_1" style="enable-background:new 0 0 128 128;" version="1.1" viewBox="0 0 128 128" xml:space="preserve" xmlns="http://www.w3.org/2000/svg" xmlns:xlink="http://www.w3.org/1999/xlink"><style type="text/css">
	.st0{fill:#0A0A0A;}
</style><path class="st0" d="M124,29H4c-1.7,0-3,1.3-3,3v63.8C1,97.6,2.4,99,4.2,99h119.6c1.8,0,3.2-1.4,3.2-3.2V32  C127,30.3,125.7,29,124,29z M124.9,96.3L79.1,71.1L125,32.2v63.6C125,96,125,96.1,124.9,96.3z M3,95.8V32.2l45.9,38.9L3.1,96.2  C3,96.1,3,95.9,3,95.8z M64.6,80.7c-0.3,0.3-0.9,0.3-1.3,0L4.7,31h118.6L64.6,80.7z M50.6,72.5l11.5,9.8c0.6,0.4,1.3,0.7,1.9,0.7  c0.7,0,1.4-0.2,1.9-0.7l11.5-9.7L122.1,97H5.8L50.6,72.5z"/></svg>